<svg width="27" height="27" viewBox="0 0 27 27" fill="none" xmlns="http://www.w3.org/2000/svg">
<g clip-path="url(#clip0_45_67)">
<path fill-rule="evenodd" clip-rule="evenodd" d="M4.83642 25.0594C4.7048 25.8086 5.44392 26.3942 6.0953 26.06L13.5034 22.253L20.9099 26.06C21.5612 26.3942 22.3004 25.8086 22.1687 25.061L20.7681 17.0792L26.7132 11.4159C27.2684 10.886 26.9798 9.91741 26.2356 9.81279L17.9702 8.63829L14.2847 1.33648C14.2145 1.18846 14.1038 1.06341 13.9653 0.975845C13.8269 0.88828 13.6664 0.841797 13.5026 0.841797C13.3388 0.841797 13.1783 0.88828 13.0398 0.975845C12.9014 1.06341 12.7906 1.18846 12.7204 1.33648L9.03492 8.63998L0.769547 9.81448C0.0253595 9.9191 -0.263203 10.8877 0.291984 11.4176L6.23705 17.0809L4.83642 25.0627V25.0594ZM13.1136 20.39L6.89348 23.5862L8.06461 16.9087C8.09204 16.755 8.08131 16.5969 8.03335 16.4483C7.98539 16.2997 7.90167 16.1652 7.78955 16.0565L2.88567 11.3822L9.72342 10.4102C9.86501 10.3888 9.99931 10.3334 10.1148 10.2488C10.2303 10.1641 10.3236 10.0527 10.3866 9.92416L13.5034 3.75129L16.6185 9.92416C16.6816 10.0527 16.7748 10.1641 16.8903 10.2488C17.0058 10.3334 17.1401 10.3888 17.2817 10.4102L24.1195 11.3805L19.2156 16.0549C19.1031 16.1636 19.0191 16.2984 18.9712 16.4473C18.9232 16.5963 18.9127 16.7548 18.9405 16.9087L20.1117 23.5862L13.8915 20.39C13.7713 20.328 13.6379 20.2957 13.5026 20.2957C13.3673 20.2957 13.2339 20.328 13.1136 20.39Z" fill="#5661CB"/>
</g>
<defs>
<clipPath id="clip0_45_67">
<rect width="27" height="27" fill="white"/>
</clipPath>
</defs>
</svg>
