<svg width="54" height="60" viewBox="0 0 54 60" fill="none" xmlns="http://www.w3.org/2000/svg">
<path d="M6 10L6 54C6 56.2091 7.79086 58 10 58L44 58C46.2091 58 48 56.2091 48 54L48 10" stroke="#252525" stroke-width="4" stroke-linecap="round" stroke-linejoin="round"/>
<path d="M20 20L20 48" stroke="#252525" stroke-width="4" stroke-linecap="round" stroke-linejoin="round"/>
<path d="M34 20L34 48" stroke="#252525" stroke-width="4" stroke-linecap="round" stroke-linejoin="round"/>
<path d="M52 10L48 10L6 10H2" stroke="#252525" stroke-width="4" stroke-linecap="round" stroke-linejoin="round"/>
<path d="M14.8552 9.9984L13.2916 8.75142C12.8126 9.35207 12.72 10.174 13.0533 10.8662C13.3866 11.5583 14.087 11.9984 14.8552 11.9984V9.9984ZM39.145 9.9984V11.9984C39.9132 11.9984 40.6136 11.5583 40.9469 10.8662C41.2802 10.174 41.1876 9.35207 40.7086 8.75142L39.145 9.9984ZM20.9257 2.38623V0.38623C20.3171 0.38623 19.7416 0.66339 19.3621 1.13925L20.9257 2.38623ZM33.0745 2.38623L34.6381 1.13925C34.2586 0.66339 33.6831 0.38623 33.0745 0.38623V2.38623ZM14.8552 11.9984L39.145 11.9984V7.9984L14.8552 7.9984V11.9984ZM16.4189 11.2454L22.4894 3.63321L19.3621 1.13925L13.2916 8.75142L16.4189 11.2454ZM20.9257 4.38623L33.0745 4.38623V0.38623L20.9257 0.38623V4.38623ZM31.5108 3.63321L37.5813 11.2454L40.7086 8.75142L34.6381 1.13925L31.5108 3.63321Z" fill="#252525"/>
</svg>
